<?xml version="1.0" standalone="no"?><!DOCTYPE svg PUBLIC "-//W3C//DTD SVG 1.1//EN" "http://www.w3.org/Graphics/SVG/1.1/DTD/svg11.dtd"><svg t="1559959921998" class="icon" style="" viewBox="0 0 1024 1024" version="1.1" xmlns="http://www.w3.org/2000/svg" p-id="1520" xmlns:xlink="http://www.w3.org/1999/xlink" width="200" height="200"><defs><style type="text/css"></style></defs><path d="M340.0704 307.3536h412.4672a84.8896 84.8896 0 0 1 81.3056 109.4144l-39.0144 129.4848c-10.8544 35.84-43.8784 60.416-81.3056 60.416H379.8016l3.584 27.136c1.8432 14.0288 13.824 24.576 28.0576 24.576h368.128a28.3136 28.3136 0 1 1 0 56.576h-368.128a84.8896 84.8896 0 0 1-84.1728-73.728l-50.5344-380.8256a28.3136 28.3136 0 0 0-28.0576-24.576h-41.1648a28.3136 28.3136 0 1 1 0-56.6272h41.1648c42.5984 0 78.592 31.5392 84.1728 73.728l7.2192 54.4256z m7.5264 56.6272l24.6784 186.0608h341.248c12.4928 0 23.5008-8.192 27.0848-20.1216l39.0144-129.4848a28.3136 28.3136 0 0 0-27.0848-36.4544h-404.992z m23.3472 434.176c0-25.7536 21.4016-46.6432 47.872-46.6432 26.4192 0 47.872 20.8896 47.872 46.592a47.2576 47.2576 0 0 1-47.872 46.6944 47.2576 47.2576 0 0 1-47.872-46.6432z m289.9968 0c0-25.7536 21.4528-46.6432 47.872-46.6432 26.4704 0 47.872 20.8896 47.872 46.592a47.2576 47.2576 0 0 1-47.872 46.6944 47.2576 47.2576 0 0 1-47.872-46.6432z" p-id="1521"></path></svg>