<?xml version="1.0" standalone="no"?><!DOCTYPE svg PUBLIC "-//W3C//DTD SVG 1.1//EN" "http://www.w3.org/Graphics/SVG/1.1/DTD/svg11.dtd"><svg t="1559959952894" class="icon" style="" viewBox="0 0 1024 1024" version="1.1" xmlns="http://www.w3.org/2000/svg" p-id="1636" xmlns:xlink="http://www.w3.org/1999/xlink" width="200" height="200"><defs><style type="text/css"></style></defs><path d="M665.6 435.2A76.8 76.8 0 1 0 588.8 358.4v76.8H665.6z m0-204.8a128 128 0 1 1 0 256h-102.4a25.6 25.6 0 0 1-25.6-25.6V358.4A128 128 0 0 1 665.6 230.4zM588.8 665.6a76.8 76.8 0 1 0 76.8-76.8h-76.8V665.6z m204.8 0a128 128 0 1 1-256 0v-102.4a25.6 25.6 0 0 1 25.6-25.6h102.4a128 128 0 0 1 128 128z m-358.4-76.8H358.4A76.8 76.8 0 1 0 435.2 665.6v-76.8z m-76.8 204.8a128 128 0 1 1 0-256h102.4a25.6 25.6 0 0 1 25.6 25.6v102.4A128 128 0 0 1 358.4 793.6z m76.8-358.4V358.4A76.8 76.8 0 1 0 358.4 435.2h76.8zM358.4 230.4A128 128 0 0 1 486.4 358.4v102.4a25.6 25.6 0 0 1-25.6 25.6H358.4a128 128 0 0 1 0-256z" p-id="1637"></path></svg>